<svg xmlns="http://www.w3.org/2000/svg" width="103.928" height="59.784" viewBox="0 0 103.928 59.784">
  <g id="GBA25_HO_WINNER_N_RGB" transform="translate(0 -0.001)">
    <path id="Pfad_1" data-name="Pfad 1" d="M43.9,18.33l-17.475-7.4a3.419,3.419,0,0,1,.415.436,2.6,2.6,0,0,1,.323,1.545V53.367c0,2.85-1.751,3.636-2.88,3.636s-2.881-.786-2.881-3.639V8.937L0,0V42.336c0,2.328.934,2.966,2.335,3.869.474.3,19.267,12.738,19.267,12.738l-.01-.01a4.625,4.625,0,0,0,5.387-.027c.357-.233,17.977-11.817,19.257-12.7,1.4-.968,2.335-1.538,2.335-3.876V24.016c0-3.948-2.335-4.71-4.669-5.686Z" transform="translate(0 0.001)" fill="#fff"/>
    <path id="Pfad_2" data-name="Pfad 2" d="M216.642,100.758a.867.867,0,0,1-.992-.968,8.028,8.028,0,0,1,1.054-2.74h.721l-.783,1.737a.987.987,0,1,1,0,1.974Z" transform="translate(-141.612 -63.729)" fill="#fff"/>
    <path id="Pfad_3" data-name="Pfad 3" d="M167.276,35c0,1.552-1.363,2.06-2.743,2.06a13.571,13.571,0,0,1-2.853-.285l.076-1.078a12.224,12.224,0,0,0,2.122.237c1.016,0,1.6-.309,1.586-1.267v-.632a5.263,5.263,0,0,1-1.586.247c-2.122,0-2.767-1.106-2.767-3.251s.954-3.251,3.275-3.251a9.579,9.579,0,0,1,2.891.4V35Zm-1.813-5.919a4.481,4.481,0,0,0-1.191-.148c-1.106,0-1.315,1.054-1.315,2.1s.148,2.1,1.315,2.1a3.94,3.94,0,0,0,1.191-.161V29.085Z" transform="translate(-105.797 -18.242)" fill="#fff"/>
    <path id="Pfad_4" data-name="Pfad 4" d="M188.689,31.5h-4.058c0,.978.261,1.8,1.686,1.8a9.229,9.229,0,0,0,1.9-.223l.076,1.03a9.107,9.107,0,0,1-2.705.323c-2.122,0-2.716-1.178-2.716-3.4,0-2.084.869-3.251,3-3.251s2.843,1.167,2.843,3.251C188.713,31.093,188.7,31.44,188.689,31.5ZM187.038,30.5c-.014-.845-.137-1.662-1.2-1.662s-1.191.845-1.191,1.662Z" transform="translate(-120.086 -18.242)" fill="#fff"/>
    <path id="Pfad_5" data-name="Pfad 5" d="M227.165,34.283h-2.753V31.031c0-1.686-.223-2.07-1.13-2.07a3.009,3.009,0,0,0-1.1.223,4.971,4.971,0,0,1,.237,1.847v2.046l.869.076v1.13h-2.678V31.031c0-1.686-.275-2.07-1.13-2.07a3.607,3.607,0,0,0-.944.148v3.969l.893.076v1.13H215.78v-1.13l.93-.076V28.189a10.374,10.374,0,0,1,2.877-.409,3.148,3.148,0,0,1,1.689.409,6.3,6.3,0,0,1,2.16-.409c2.42,0,2.8.759,2.8,3.251v2.046l.93.076v1.13Z" transform="translate(-141.697 -18.242)" fill="#fff"/>
    <path id="Pfad_6" data-name="Pfad 6" d="M256.816,34.028a11.418,11.418,0,0,1-3.014.409c-2.122,0-2.791-.632-2.791-1.936,0-1.1.755-2.008,3.2-2.008h.807v-.508c0-.683-.261-1.14-1.044-1.14a4.439,4.439,0,0,0-.954.113l-.076.755H251.59l.024-1.586a9.352,9.352,0,0,1,2.554-.336c1.974,0,2.644.6,2.644,2.012v4.23Zm-1.8-2.568h-.56c-1.415,0-1.675.46-1.675.992s.223.93,1.13.93a5.037,5.037,0,0,0,1.105-.148Z" transform="translate(-164.832 -18.248)" fill="#fff"/>
    <path id="Pfad_7" data-name="Pfad 7" d="M229.042,54.939a6.792,6.792,0,0,0-.855-.048,3.8,3.8,0,0,0-1.054.161V59l1.006.076V60.2H224.38v-1.13l.93-.076V54.109a8.628,8.628,0,0,1,2.582-.409,9.18,9.18,0,0,1,1.229.076l-.076,1.167Z" transform="translate(-147.345 -35.263)" fill="#fff"/>
    <path id="Pfad_8" data-name="Pfad 8" d="M246.206,59.932a11.417,11.417,0,0,1-3.014.409c-2.122,0-2.791-.632-2.791-1.936,0-1.1.755-2.008,3.2-2.008h.807v-.508c0-.683-.261-1.14-1.044-1.14a4.735,4.735,0,0,0-.954.11l-.076.755H240.98L241,54.026a9.352,9.352,0,0,1,2.554-.336c1.974,0,2.644.6,2.644,2.012v4.23Zm-1.8-2.568h-.56c-1.415,0-1.675.46-1.675.992s.223.93,1.13.93a5.038,5.038,0,0,0,1.106-.148Z" transform="translate(-157.865 -35.256)" fill="#fff"/>
    <path id="Pfad_9" data-name="Pfad 9" d="M166.816,85.852a11.417,11.417,0,0,1-3.014.409c-2.122,0-2.791-.632-2.791-1.936,0-1.1.755-2.008,3.2-2.008h.807v-.508c0-.683-.261-1.14-1.044-1.14a4.769,4.769,0,0,0-.954.11l-.076.755H161.59l.024-1.586a9.352,9.352,0,0,1,2.554-.336c1.974,0,2.644.6,2.644,2.012v4.23Zm-1.8-2.568h-.556c-1.415,0-1.675.46-1.675.992s.223.93,1.13.93a4.976,4.976,0,0,0,1.1-.148Z" transform="translate(-105.731 -52.277)" fill="#fff"/>
    <path id="Pfad_10" data-name="Pfad 10" d="M191.37,81.18l-.855.076L189,86.405h-2l-1.363-4.566-1.39,4.566h-1.984l-1.5-5.15-.855-.076V80.05h3.547v1.13l-.807.076.978,3.536,1.452-4.738h1.8l1.428,4.738,1.016-3.536-.817-.076V80.05h2.867v1.13Z" transform="translate(-118.142 -52.566)" fill="#fff"/>
    <path id="Pfad_11" data-name="Pfad 11" d="M220.156,85.852a11.417,11.417,0,0,1-3.014.409c-2.122,0-2.791-.632-2.791-1.936,0-1.1.755-2.008,3.2-2.008h.807v-.508c0-.683-.261-1.14-1.044-1.14a4.769,4.769,0,0,0-.954.11l-.076.755H214.93l.024-1.586a9.353,9.353,0,0,1,2.554-.336c1.974,0,2.644.6,2.644,2.012v4.23Zm-1.8-2.568h-.56c-1.415,0-1.675.46-1.675.992s.223.93,1.13.93a5.037,5.037,0,0,0,1.105-.148Z" transform="translate(-140.758 -52.277)" fill="#fff"/>
    <path id="Pfad_12" data-name="Pfad 12" d="M238.852,80.859a6.792,6.792,0,0,0-.855-.048,3.8,3.8,0,0,0-1.054.161v3.945l1.006.076v1.13H234.19v-1.13l.93-.076V80.029a8.628,8.628,0,0,1,2.582-.409,9.181,9.181,0,0,1,1.229.076l-.076,1.167Z" transform="translate(-153.787 -52.283)" fill="#fff"/>
    <path id="Pfad_13" data-name="Pfad 13" d="M207.3,36.679a5.648,5.648,0,0,0-1.6.237v-7.78a4.035,4.035,0,0,1,1.064-.161,6.792,6.792,0,0,1,.855.048l.076-1.167a9.085,9.085,0,0,0-1.229-.076,8.412,8.412,0,0,0-2.551.409V42.917a8.774,8.774,0,0,0,2.863.409c2.393,0,3.275-1.116,3.275-3.4,0-2.16-.807-3.251-2.753-3.251Zm-.409,5.5a3.8,3.8,0,0,1-1.191-.161v-4.02a3.93,3.93,0,0,1,1.191-.161c1.191,0,1.3,1.03,1.3,2.1C208.188,41.084,208.1,42.176,206.887,42.176Z" transform="translate(-133.903 -18.242)" fill="#fff"/>
    <path id="Pfad_14" data-name="Pfad 14" d="M260.137,59V56.951c0-2.493-.385-3.251-2.877-3.251a11.092,11.092,0,0,0-2.956.409v8.71a5.383,5.383,0,0,0-1.5-.223c-1.837,0-2.867,1.092-2.867,3.251s.694,3.4,3.052,3.4a9.8,9.8,0,0,0,3.1-.409v-13.8a4.358,4.358,0,0,1,1.057-.161c.944,0,1.167.385,1.167,2.07V60.2h2.753V59.07l-.93-.076ZM254.3,67.931a3.9,3.9,0,0,1-1.2.161c-1.2,0-1.315-1.106-1.315-2.245,0-1.054.137-2.1,1.315-2.1a3.871,3.871,0,0,1,1.191.161Z" transform="translate(-164.129 -35.263)" fill="#fff"/>
    <path id="Pfad_15" data-name="Pfad 15" d="M278.372,34.289V33.156l-.869-.069V31.041c0-2.493-.385-3.251-2.877-3.251a11.178,11.178,0,0,0-2.966.409v4.889l-.93.076v1.13h3.66v-1.13l-.906-.076V29.129a4.1,4.1,0,0,1,1.03-.161c.944,0,1.167.385,1.167,2.07v3.251Z" transform="translate(-177.782 -18.248)" fill="#fff"/>
    <path id="Pfad_16" data-name="Pfad 16" d="M288.235,46.47V47.6l.869.069v1.5a5.453,5.453,0,0,0-1.487-.223c-1.837,0-2.867,1.092-2.867,3.251s.694,3.4,3.052,3.4a9.918,9.918,0,0,0,3.114-.409V46.47h-2.678Zm.869,7.814a3.82,3.82,0,0,1-1.191.161c-1.205,0-1.315-1.106-1.315-2.245,0-1.054.137-2.1,1.315-2.1a3.871,3.871,0,0,1,1.191.161Z" transform="translate(-186.988 -30.515)" fill="#fff"/>
    <g id="Gruppe_83" data-name="Gruppe 83" transform="translate(76.544 35.614)">
      <path id="Pfad_17" data-name="Pfad 17" d="M229.106,112.135H222.95v-1.1c1.778-1.188,3.917-3.042,3.917-4.6,0-.851-.285-1.5-1.617-1.5a7.455,7.455,0,0,0-1.9.3l-.076-1.16a9.38,9.38,0,0,1,2.458-.347c2.5,0,3.052,1.075,3.052,2.705,0,1.8-2.4,3.684-3.832,4.487l4.151-.014v1.222Z" transform="translate(-222.95 -103.73)" fill="#fff"/>
      <path id="Pfad_18" data-name="Pfad 18" d="M245.433,112.575a11.213,11.213,0,0,1-2.733-.333l.072-1.16a9.214,9.214,0,0,0,2.187.3c1.469,0,1.94-.632,1.94-1.507,0-.941-.433-1.507-1.94-1.507a12.362,12.362,0,0,0-1.978.233L243,104.17h5.449v1.212h-4.055l-.014,2.053a8.53,8.53,0,0,1,1.445-.137c2.163,0,2.966.951,2.966,2.558s-.965,2.719-3.361,2.719Z" transform="translate(-235.919 -104.019)" fill="#fff"/>
    </g>
    <g id="Gruppe_84" data-name="Gruppe 84" transform="translate(57.486 43.638)">
      <path id="Pfad_19" data-name="Pfad 19" d="M178.856,136.036l-.851.076-1.507,5.129h-1.991l-1.36-4.549-1.384,4.549h-1.978l-1.493-5.129-.851-.076V134.91h3.533v1.126l-.8.076.975,3.523,1.445-4.721h1.792l1.421,4.721,1.013-3.523-.817-.076V134.91h2.853v1.126Z" transform="translate(-167.44 -132.229)" fill="#fff"/>
      <path id="Pfad_20" data-name="Pfad 20" d="M206.54,136.109h-3.67v-1.126l.927-.076v-3.931l-.927-.076v-1.126h2.743V134.9l.927.076v1.126Zm-1.84-7.193c-.79,0-1.051-.333-1.051-.927s.3-.889,1.064-.889,1.051.323,1.051.889S205.493,128.916,204.7,128.916Z" transform="translate(-190.706 -127.1)" fill="#fff"/>
      <path id="Pfad_21" data-name="Pfad 21" d="M223.433,140.955H220.69v-3.238c0-1.682-.223-2.063-1.16-2.063a4.1,4.1,0,0,0-1.027.161v3.941l.9.076v1.126H215.76v-1.126l.927-.076v-4.868a10.923,10.923,0,0,1,2.953-.409c2.482,0,2.867.755,2.867,3.238v2.039l.927.076v1.126Z" transform="translate(-199.171 -131.946)" fill="#fff"/>
      <path id="Pfad_22" data-name="Pfad 22" d="M248.023,140.955H245.28v-3.238c0-1.682-.223-2.063-1.16-2.063a4.1,4.1,0,0,0-1.027.161v3.941l.9.076v1.126H240.35v-1.126l.927-.076v-4.868a10.924,10.924,0,0,1,2.953-.409c2.486,0,2.867.755,2.867,3.238v2.039l.927.076v1.126Z" transform="translate(-215.318 -131.946)" fill="#fff"/>
      <path id="Pfad_23" data-name="Pfad 23" d="M270.742,138.195H266.7c0,.975.261,1.792,1.682,1.792a9.144,9.144,0,0,0,1.892-.223l.076,1.027a9.038,9.038,0,0,1-2.7.323c-2.115,0-2.705-1.174-2.705-3.385,0-2.077.865-3.238,2.99-3.238s2.829,1.16,2.829,3.238c0,.062-.014.409-.024.47Zm-1.645-1c-.014-.841-.134-1.655-1.2-1.655s-1.188.841-1.188,1.655Z" transform="translate(-231.472 -131.953)" fill="#fff"/>
      <path id="Pfad_24" data-name="Pfad 24" d="M288.425,135.723a6.723,6.723,0,0,0-.851-.048,3.8,3.8,0,0,0-1.051.161v3.931l1,.076v1.126H283.78v-1.126l.927-.076V134.9a8.569,8.569,0,0,1,2.571-.409,8.441,8.441,0,0,1,1.222.076l-.072,1.16Z" transform="translate(-243.838 -131.953)" fill="#fff"/>
    </g>
  </g>
</svg>
